<svg xmlns="http://www.w3.org/2000/svg" version="1.1" xmlns:xlink="http://www.w3.org/1999/xlink" width="1000" height="1000"><metadata><rdf:RDF xmlns:rdf="http://www.w3.org/1999/02/22-rdf-syntax-ns#" xmlns:dc="http://purl.org/dc/elements/1.1/"><rdf:Description><dc:creator>RealFaviconGenerator</dc:creator><dc:source>https://realfavicongenerator.net</dc:source></rdf:Description></rdf:RDF></metadata><g clip-path="url(#SvgjsClipPath1669)"><rect width="1000" height="1000" fill="#ffffff"></rect><g transform="matrix(1.7578125,0,0,1.7578125,50,50)"><svg xmlns="http://www.w3.org/2000/svg" width="512" height="512" viewBox="0 0 512 512" fill="none"><g clip-path="url(#clip0_261_2)">
<rect width="512" height="512" rx="256" fill="white"></rect>
<path d="M184.914 286.5V228.5H259.414C275.081 228.5 287.081 224.5 295.414 216.5C304.081 208.5 308.414 197.667 308.414 184C308.414 171.333 304.247 160.833 295.914 152.5C287.581 144.167 275.581 140 259.914 140H184.914V79H268.914C292.247 79 312.747 83.5 330.414 92.5C348.081 101.167 361.914 113.333 371.914 129C381.914 144.667 386.914 162.667 386.914 183C386.914 203.667 381.914 221.833 371.914 237.5C361.914 252.833 347.914 264.833 329.914 273.5C311.914 282.167 290.747 286.5 266.414 286.5H184.914ZM124.914 432V79H203.414V432H124.914ZM316.914 432L206.914 280L278.914 260.5L409.914 432H316.914Z" fill="#1B222B"></path>
</g><defs>
<clipPath id="clip0_261_2">
<rect width="512" height="512" rx="256" fill="white"></rect>
</clipPath>
<clipPath id="SvgjsClipPath1669"><rect width="1000" height="1000" x="0" y="0" rx="500" ry="500"></rect></clipPath></defs></svg></g></g></svg>